<?xml version="1.0" encoding="UTF-8" standalone="no"?><!DOCTYPE score-partwise PUBLIC "-//Recordare//DTD MusicXML 1.1 Partwise//EN" "http://www.musicxml.org/dtds/partwise.dtd"><score-partwise>	<identification>		<encoding>			<software>PDFtoMusic Pro v1.3.1d Build E871 (c) Myriad - http://www.myriad-online.com</software>			<?PDFtoMusic Document type 0100- 00000000?>		</encoding>	</identification>	<defaults>		<scaling>			<millimeters>7.535315</millimeters>			<tenths>40</tenths>		</scaling>		<page-layout>			<page-height>1576.783</page-height>			<page-width>1114.235</page-width>			<page-margins type="both">				<left-margin>53.083</left-margin>				<right-margin>53.083</right-margin>				<top-margin>53.083</top-margin>				 <bottom-margin>53.083</bottom-margin>			</page-margins>		</page-layout>	</defaults>	<credit>		<credit-words  default-x="553.952" default-y="12.697" justify="left" valign="baseline" font-family="Times New Roman" font-size="12" font-weight="normal" font-style="normal">1</credit-words>	</credit>	<part-list>		<score-part id="P1">			<part-name></part-name>			<score-instrument id="P1-I1">				<instrument-name>Instrument 1</instrument-name>			</score-instrument>			<midi-instrument id="P1-I1">				<midi-channel>1</midi-channel>				<midi-bank>1</midi-bank>				<midi-program>1</midi-program>				<?Myriad				<midi-volume>64</midi-volume>				?>				<?Myriad				<midi-panning>0</midi-panning>				?>			</midi-instrument>		</score-part>	</part-list>	<part id="P1">		<!--==========================[1,1]=============================-->		<measure number="1" width="288">			<print>				<system-layout>					<system-margins>						<left-margin>7.759</left-margin>						<right-margin>0.000</right-margin>					</system-margins>					<top-system-distance>73.640</top-system-distance>				</system-layout>				<staff-layout number="2">					<staff-distance>62.472</staff-distance>				</staff-layout>			</print>			<attributes>				<divisions>6720</divisions>				<time>					<beats>4</beats>					<beat-type>4</beat-type>				</time>				<staves>2</staves>				<clef number="1">					<sign>G</sign>					<line>2</line>				</clef>				<clef number="2">					<sign>F</sign>					<line>4</line>				</clef>				<staff-details number="1" print-object="yes">					<staff-lines>5</staff-lines>					<staff-size>100.00</staff-size>				</staff-details>				<staff-details number="2" print-object="yes">					<staff-lines>5</staff-lines>					<staff-size>100.00</staff-size>				</staff-details>			</attributes>			<note>				<pitch>					<step>C</step>					<octave>4</octave>				</pitch>				<duration>13440</duration>				<voice>1</voice>				<type>half</type>				<stem default-y="-15.51">up</stem>				<staff>1</staff>			</note>			<note>				<pitch>					<step>F</step>					<octave>4</octave>				</pitch>				<duration>13440</duration>				<voice>1</voice>				<type>half</type>				<stem default-y="-0.56">up</stem>				<staff>1</staff>			</note>			<backup>				<duration>26880</duration>			</backup>			<note>				<pitch>					<step>C</step>					<octave>2</octave>				</pitch>				<duration>26880</duration>				<tie type="start"/>				<voice>4</voice>				<type>whole</type>				<stem>none</stem>				<staff>2</staff>				<notations>					<tied type="start" number="1" placement="below" orientation="under"/>				</notations>			</note>		</measure>		<!--==========================[1,2]=============================-->		<measure number="2" width="223">			<note>				<pitch>					<step>G</step>					<octave>4</octave>				</pitch>				<duration>13440</duration>				<voice>1</voice>				<type>half</type>				<stem default-y="4.49">up</stem>				<staff>1</staff>			</note>			<note>				<pitch>					<step>C</step>					<octave>4</octave>				</pitch>				<duration>13440</duration>				<voice>1</voice>				<type>half</type>				<stem default-y="-15.51">up</stem>				<staff>1</staff>			</note>			<backup>				<duration>26880</duration>			</backup>			<note>				<pitch>					<step>C</step>					<octave>2</octave>				</pitch>				<duration>26880</duration>				<tie type="stop"/>				<voice>4</voice>				<type>whole</type>				<stem>none</stem>				<staff>2</staff>				<notations>					<tied type="stop" number="1"/>				</notations>			</note>		</measure>		<!--==========================[1,3]=============================-->		<measure number="3" width="264">			<note>				<pitch>					<step>C</step>					<octave>2</octave>				</pitch>				<duration>13440</duration>				<voice>4</voice>				<type>half</type>				<stem default-y="-20.45">up</stem>				<staff>2</staff>			</note>			<note>				<pitch>					<step>F</step>					<octave>2</octave>				</pitch>				<duration>13440</duration>				<voice>4</voice>				<type>half</type>				<stem default-y="-10.56">up</stem>				<staff>2</staff>			</note>			<backup>				<duration>26880</duration>			</backup>			<note>				<pitch>					<step>E</step>					<octave>4</octave>				</pitch>				<duration>6720</duration>				<voice>1</voice>				<type>quarter</type>				<stem default-y="4.49">up</stem>				<staff>1</staff>			</note>			<note>				<chord/>				<pitch>					<step>C</step>					<octave>4</octave>				</pitch>				<duration>6720</duration>				<voice>1</voice>				<type>quarter</type>				<stem default-y="4.49">up</stem>				<staff>1</staff>			</note>			<note>				<chord/>				<pitch>					<step>G</step>					<octave>4</octave>				</pitch>				<duration>6720</duration>				<voice>1</voice>				<type>quarter</type>				<stem default-y="4.49">up</stem>				<staff>1</staff>			</note>			<note>				<rest>				</rest>				<duration>6720</duration>				<voice>1</voice>				<type>quarter</type>				<staff>1</staff>			</note>			<note>				<pitch>					<step>C</step>					<octave>4</octave>				</pitch>				<duration>6720</duration>				<voice>1</voice>				<type>quarter</type>				<stem default-y="9.44">up</stem>				<staff>1</staff>			</note>			<note>				<chord/>				<pitch>					<step>F</step>					<octave>4</octave>				</pitch>				<duration>6720</duration>				<voice>1</voice>				<type>quarter</type>				<stem default-y="9.44">up</stem>				<staff>1</staff>			</note>			<note>				<chord/>				<pitch>					<step>A</step>					<octave>4</octave>				</pitch>				<duration>6720</duration>				<voice>1</voice>				<type>quarter</type>				<stem default-y="9.44">up</stem>				<staff>1</staff>			</note>			<note>				<rest>				</rest>				<duration>6720</duration>				<voice>1</voice>				<type>quarter</type>				<staff>1</staff>			</note>		</measure>		<!--==========================[1,4]=============================-->		<measure number="4" width="242">			<note>				<pitch>					<step>G</step>					<octave>4</octave>				</pitch>				<duration>6720</duration>				<voice>1</voice>				<type>quarter</type>				<stem default-y="4.49">up</stem>				<staff>1</staff>			</note>			<note>				<chord/>				<pitch>					<step>D</step>					<octave>4</octave>				</pitch>				<duration>6720</duration>				<voice>1</voice>				<type>quarter</type>				<stem default-y="4.49">up</stem>				<staff>1</staff>			</note>			<note>				<rest>				</rest>				<duration>6720</duration>				<voice>1</voice>				<type>quarter</type>				<staff>1</staff>			</note>			<note>				<pitch>					<step>G</step>					<octave>4</octave>				</pitch>				<duration>13440</duration>				<voice>1</voice>				<type>half</type>				<stem default-y="4.49">up</stem>				<staff>1</staff>			</note>			<note>				<chord/>				<pitch>					<step>E</step>					<octave>4</octave>				</pitch>				<duration>13440</duration>				<voice>1</voice>				<type>half</type>				<stem default-y="4.49">up</stem>				<staff>1</staff>			</note>			<note>				<chord/>				<pitch>					<step>C</step>					<octave>4</octave>				</pitch>				<duration>13440</duration>				<voice>1</voice>				<type>half</type>				<stem default-y="4.49">up</stem>				<staff>1</staff>			</note>			<backup>				<duration>26880</duration>			</backup>			<note>				<pitch>					<step>B</step>					<octave>3</octave>				</pitch>				<duration>6720</duration>				<voice>4</voice>				<type>quarter</type>				<stem default-y="-75.39">down</stem>				<staff>2</staff>			</note>			<note>				<chord/>				<pitch>					<step>G</step>					<octave>2</octave>				</pitch>				<duration>6720</duration>				<voice>4</voice>				<type>quarter</type>				<stem default-y="-84.02">down</stem>				<staff>2</staff>			</note>			<note>				<rest>				</rest>				<duration>6720</duration>				<voice>4</voice>				<type>quarter</type>				<staff>2</staff>			</note>			<note>				<pitch>					<step>C</step>					<octave>2</octave>				</pitch>				<duration>13440</duration>				<voice>4</voice>				<type>half</type>				<stem default-y="-20.45">up</stem>				<staff>2</staff>			</note>		</measure>		<!--==========================[1,5]=============================-->		<measure number="5" width="294">			<print new-system="yes">				<system-layout>					<system-margins>						<left-margin>7.759</left-margin>						<right-margin>0.000</right-margin>					</system-margins>					<system-distance>75.056</system-distance>				</system-layout>				<staff-layout number="2">					<staff-distance>62.472</staff-distance>				</staff-layout>			</print>			<attributes>				<staff-details number="1" print-object="yes">				</staff-details>				<staff-details number="2" print-object="yes">				</staff-details>			</attributes>			<note>				<pitch>					<step>C</step>					<octave>4</octave>				</pitch>				<duration>6720</duration>				<voice>1</voice>				<type>quarter</type>				<stem default-y="-15.51">up</stem>				<staff>1</staff>			</note>			<note>				<pitch>					<step>C</step>					<octave>4</octave>				</pitch>				<duration>6720</duration>				<voice>1</voice>				<type>quarter</type>				<stem default-y="-15.51">up</stem>				<staff>1</staff>			</note>			<note>				<pitch>					<step>F</step>					<octave>4</octave>				</pitch>				<duration>6720</duration>				<voice>1</voice>				<type>quarter</type>				<stem default-y="-0.56">up</stem>				<staff>1</staff>			</note>			<note>				<pitch>					<step>F</step>					<octave>4</octave>				</pitch>				<duration>6720</duration>				<voice>1</voice>				<type>quarter</type>				<stem default-y="-0.56">up</stem>				<staff>1</staff>			</note>			<backup>				<duration>26880</duration>			</backup>			<note>				<pitch>					<step>C</step>					<octave>2</octave>				</pitch>				<duration>6720</duration>				<voice>4</voice>				<type>quarter</type>				<stem default-y="-20.45">up</stem>				<staff>2</staff>			</note>			<note>				<pitch>					<step>C</step>					<octave>2</octave>				</pitch>				<duration>6720</duration>				<voice>4</voice>				<type>quarter</type>				<stem default-y="-20.45">up</stem>				<staff>2</staff>			</note>			<note>				<pitch>					<step>F</step>					<octave>2</octave>				</pitch>				<duration>6720</duration>				<voice>4</voice>				<type>quarter</type>				<stem default-y="-10.56">up</stem>				<staff>2</staff>			</note>			<note>				<pitch>					<step>F</step>					<octave>2</octave>				</pitch>				<duration>6720</duration>				<voice>4</voice>				<type>quarter</type>				<stem default-y="-10.56">up</stem>				<staff>2</staff>			</note>		</measure>		<!--==========================[1,6]=============================-->		<measure number="6" width="233">			<note>				<pitch>					<step>G</step>					<octave>4</octave>				</pitch>				<duration>6720</duration>				<voice>1</voice>				<type>quarter</type>				<stem default-y="4.49">up</stem>				<staff>1</staff>			</note>			<note>				<pitch>					<step>G</step>					<octave>4</octave>				</pitch>				<duration>6720</duration>				<voice>1</voice>				<type>quarter</type>				<stem default-y="4.49">up</stem>				<staff>1</staff>			</note>			<note>				<pitch>					<step>C</step>					<octave>4</octave>				</pitch>				<duration>13440</duration>				<voice>1</voice>				<type>half</type>				<stem default-y="-15.51">up</stem>				<staff>1</staff>			</note>			<backup>				<duration>26880</duration>			</backup>			<note>				<pitch>					<step>G</step>					<octave>2</octave>				</pitch>				<duration>6720</duration>				<voice>4</voice>				<type>quarter</type>				<stem default-y="-5.51">up</stem>				<staff>2</staff>			</note>			<note>				<pitch>					<step>G</step>					<octave>2</octave>				</pitch>				<duration>6720</duration>				<voice>4</voice>				<type>quarter</type>				<stem default-y="-5.51">up</stem>				<staff>2</staff>			</note>			<note>				<pitch>					<step>C</step>					<octave>2</octave>				</pitch>				<duration>13440</duration>				<voice>4</voice>				<type>half</type>				<stem default-y="-20.45">up</stem>				<staff>2</staff>			</note>		</measure>		<!--==========================[1,7]=============================-->		<measure number="7" width="255">			<note>				<pitch>					<step>G</step>					<octave>4</octave>				</pitch>				<duration>6720</duration>				<voice>1</voice>				<type>quarter</type>				<stem default-y="4.49">up</stem>				<staff>1</staff>			</note>			<note>				<chord/>				<pitch>					<step>E</step>					<octave>4</octave>				</pitch>				<duration>6720</duration>				<voice>1</voice>				<type>quarter</type>				<stem default-y="4.49">up</stem>				<staff>1</staff>			</note>			<note>				<chord/>				<pitch>					<step>C</step>					<octave>4</octave>				</pitch>				<duration>6720</duration>				<voice>1</voice>				<type>quarter</type>				<stem default-y="4.49">up</stem>				<staff>1</staff>			</note>			<note>				<pitch>					<step>E</step>					<octave>4</octave>				</pitch>				<duration>6720</duration>				<voice>1</voice>				<type>quarter</type>				<stem default-y="4.49">up</stem>				<staff>1</staff>			</note>			<note>				<chord/>				<pitch>					<step>C</step>					<octave>4</octave>				</pitch>				<duration>6720</duration>				<voice>1</voice>				<type>quarter</type>				<stem default-y="4.49">up</stem>				<staff>1</staff>			</note>			<note>				<chord/>				<pitch>					<step>G</step>					<octave>4</octave>				</pitch>				<duration>6720</duration>				<voice>1</voice>				<type>quarter</type>				<stem default-y="4.49">up</stem>				<staff>1</staff>			</note>			<note>				<pitch>					<step>C</step>					<octave>4</octave>				</pitch>				<duration>6720</duration>				<voice>1</voice>				<type>quarter</type>				<stem default-y="9.44">up</stem>				<staff>1</staff>			</note>			<note>				<chord/>				<pitch>					<step>A</step>					<octave>4</octave>				</pitch>				<duration>6720</duration>				<voice>1</voice>				<type>quarter</type>				<stem default-y="9.44">up</stem>				<staff>1</staff>			</note>			<note>				<chord/>				<pitch>					<step>F</step>					<octave>4</octave>				</pitch>				<duration>6720</duration>				<voice>1</voice>				<type>quarter</type>				<stem default-y="9.44">up</stem>				<staff>1</staff>			</note>			<note>				<pitch>					<step>F</step>					<octave>4</octave>				</pitch>				<duration>6720</duration>				<voice>1</voice>				<type>quarter</type>				<stem default-y="9.44">up</stem>				<staff>1</staff>			</note>			<note>				<chord/>				<pitch>					<step>A</step>					<octave>4</octave>				</pitch>				<duration>6720</duration>				<voice>1</voice>				<type>quarter</type>				<stem default-y="9.44">up</stem>				<staff>1</staff>			</note>			<note>				<chord/>				<pitch>					<step>C</step>					<octave>4</octave>				</pitch>				<duration>6720</duration>				<voice>1</voice>				<type>quarter</type>				<stem default-y="9.44">up</stem>				<staff>1</staff>			</note>			<backup>				<duration>26880</duration>			</backup>			<note>				<pitch>					<step>C</step>					<octave>2</octave>				</pitch>				<duration>6720</duration>				<voice>4</voice>				<type>quarter</type>				<stem default-y="-20.45">up</stem>				<staff>2</staff>			</note>			<note>				<pitch>					<step>C</step>					<octave>2</octave>				</pitch>				<duration>6720</duration>				<voice>4</voice>				<type>quarter</type>				<stem default-y="-20.45">up</stem>				<staff>2</staff>			</note>			<note>				<pitch>					<step>F</step>					<octave>2</octave>				</pitch>				<duration>6720</duration>				<voice>4</voice>				<type>quarter</type>				<stem default-y="-10.56">up</stem>				<staff>2</staff>			</note>			<note>				<pitch>					<step>F</step>					<octave>2</octave>				</pitch>				<duration>6720</duration>				<voice>4</voice>				<type>quarter</type>				<stem default-y="-10.56">up</stem>				<staff>2</staff>			</note>		</measure>		<!--==========================[1,8]=============================-->		<measure number="8" width="234">			<note>				<pitch>					<step>G</step>					<octave>4</octave>				</pitch>				<duration>6720</duration>				<voice>1</voice>				<type>quarter</type>				<stem default-y="4.49">up</stem>				<staff>1</staff>			</note>			<note>				<chord/>				<pitch>					<step>D</step>					<octave>4</octave>				</pitch>				<duration>6720</duration>				<voice>1</voice>				<type>quarter</type>				<stem default-y="4.49">up</stem>				<staff>1</staff>			</note>			<note>				<pitch>					<step>G</step>					<octave>4</octave>				</pitch>				<duration>6720</duration>				<voice>1</voice>				<type>quarter</type>				<stem default-y="4.49">up</stem>				<staff>1</staff>			</note>			<note>				<chord/>				<pitch>					<step>D</step>					<octave>4</octave>				</pitch>				<duration>6720</duration>				<voice>1</voice>				<type>quarter</type>				<stem default-y="4.49">up</stem>				<staff>1</staff>			</note>			<note>				<pitch>					<step>G</step>					<octave>4</octave>				</pitch>				<duration>13440</duration>				<voice>1</voice>				<type>half</type>				<stem default-y="4.49">up</stem>				<staff>1</staff>			</note>			<note>				<chord/>				<pitch>					<step>E</step>					<octave>4</octave>				</pitch>				<duration>13440</duration>				<voice>1</voice>				<type>half</type>				<stem default-y="4.49">up</stem>				<staff>1</staff>			</note>			<note>				<chord/>				<pitch>					<step>C</step>					<octave>4</octave>				</pitch>				<duration>13440</duration>				<voice>1</voice>				<type>half</type>				<stem default-y="4.49">up</stem>				<staff>1</staff>			</note>			<backup>				<duration>26880</duration>			</backup>			<note>				<pitch>					<step>B</step>					<octave>3</octave>				</pitch>				<duration>6720</duration>				<voice>4</voice>				<type>quarter</type>				<stem default-y="-75.39">down</stem>				<staff>2</staff>			</note>			<note>				<chord/>				<pitch>					<step>G</step>					<octave>2</octave>				</pitch>				<duration>6720</duration>				<voice>4</voice>				<type>quarter</type>				<stem default-y="-84.02">down</stem>				<staff>2</staff>			</note>			<note>				<pitch>					<step>B</step>					<octave>3</octave>				</pitch>				<duration>6720</duration>				<voice>4</voice>				<type>quarter</type>				<stem default-y="-75.39">down</stem>				<staff>2</staff>			</note>			<note>				<chord/>				<pitch>					<step>G</step>					<octave>2</octave>				</pitch>				<duration>6720</duration>				<voice>4</voice>				<type>quarter</type>				<stem default-y="-84.02">down</stem>				<staff>2</staff>			</note>			<note>				<pitch>					<step>C</step>					<octave>2</octave>				</pitch>				<duration>13440</duration>				<voice>4</voice>				<type>half</type>				<stem default-y="-20.45">up</stem>				<staff>2</staff>			</note>		</measure>	</part></score-partwise>